<svg xmlns="http://www.w3.org/2000/svg" data-name="kid studying" viewBox="0 0 3968.5 3968.5"><path fill="#edf2f0" stroke="#003959" stroke-miterlimit="10" stroke-width="25.23" d="M2085.29,2320.32H1927.36v257h104.81a53.13,53.13,0,0,1,53.12,53.13v529h160.16l41.11-624.24C2294.22,2418.91,2201.9,2320.32,2085.29,2320.32Z"/><path fill="#edf2f0" stroke="#003959" stroke-miterlimit="10" stroke-width="25.23" d="M1896.77,2320.32H1431.21l-12.64,46.4c-28.89,106.09,51,210.63,160.94,210.63h227.42l-25.86,582.16h160.15l77.53-703C2026.76,2383.83,1969.87,2320.32,1896.77,2320.32Z"/><path fill="#003959" stroke="#003959" stroke-miterlimit="10" stroke-width="25.23" d="M1875.64,3395.9l-94.53-80.31a84.36,84.36,0,0,1-23.85-95.27l24-60.81H1889l129.68,167.7c27.29,35.29,8.21,87-35.47,96.09h0A126.36,126.36,0,0,1,1875.64,3395.9Z"/><path fill="#edf2f0" stroke="#003959" stroke-miterlimit="10" stroke-width="25.23" d="M1856.47,3225.75H1819a37.74,37.74,0,0,1-37.74-37.73v-28.51H1889C1909.86,3186.53,1890.61,3225.75,1856.47,3225.75Z"/><path fill="#003959" stroke="#003959" stroke-miterlimit="10" stroke-width="25.23" d="M2182.11,3395.9l-94.53-80.31a84.36,84.36,0,0,1-23.85-95.27l24-60.81h107.71l129.68,167.7c27.3,35.29,8.22,87-35.46,96.09h0A126.36,126.36,0,0,1,2182.11,3395.9Z"/><path fill="#edf2f0" stroke="#003959" stroke-miterlimit="10" stroke-width="25.23" d="M2162.93,3225.75h-37.47a37.73,37.73,0,0,1-37.73-37.73v-28.51h107.71C2216.33,3186.53,2197.08,3225.75,2162.93,3225.75Z"/><path fill="#003959" stroke="#003959" stroke-miterlimit="10" stroke-width="25.23" d="M1311.52,1957.25H2531.07L2358,1487.07l-90.95,157.52L2295.29,1787,2136,1740.31l-312.3-91.46a516,516,0,0,0-363,27.48l-150.1,69.94C1237.41,1780.37,1213.76,1888.29,1311.52,1957.25Z"/><path fill="#003959" stroke="#003959" stroke-miterlimit="10" stroke-width="25.23" d="M1500.88,2074.49l-69.67,245.83h541.6l64.67-229.91a182.1,182.1,0,0,1,39.71-72.32h-501.7A77.54,77.54,0,0,0,1500.88,2074.49Z"/><path fill="#edf2f0" stroke="#003959" stroke-miterlimit="10" stroke-width="25.23" d="M1841.7,1609.25,1874.87,1496l150.8,42.42-25.9,88.41a70.58,70.58,0,0,0,47.89,87.58l8.32,2.43c-35.45,67.11-123.1,102.36-208.87,51.61-36.44-21.56-58.43-61.11-58.43-103.44v-25h0A44.67,44.67,0,0,0,1841.7,1609.25Z"/><path fill="#edf2f0" d="M1785.75,1924.9a23.51,23.51,0,0,1-22-15.29l-125.4-336.36a23.5,23.5,0,0,1,44-16.42l125.4,336.36a23.5,23.5,0,0,1-22,31.71Z"/><path fill="#edf2f0" stroke="#003959" stroke-miterlimit="10" stroke-width="25.23" d="M1750.72,1798.43l-98.36,44.21v114.61h151.31c55.78,0,86.68-64.64,51.65-108l-25.74-31.9A66.38,66.38,0,0,0,1750.72,1798.43Z"/><path fill="#edf2f0" stroke="#003959" stroke-miterlimit="10" stroke-width="25.23" d="M1894.55,1577.72a188.54,188.54,0,0,0,71.7,108.58l12.12,8.91a125.43,125.43,0,0,0,170.12-20.13h0A969.83,969.83,0,0,0,2263.73,1506c89-166.42-27.15-368.56-215.72-375.87l-18.07-.7a206,206,0,0,0-215.74,187.52l-5,56.88a180.23,180.23,0,0,0,3.86,55.85,57.69,57.69,0,0,0-10.3,33.4l.28,36.27c.18,23.59,13.74,45.35,35.3,55a53.17,53.17,0,0,0,28.51,4.38,25.06,25.06,0,0,1,27.74,19.07"/><path fill="#003959" stroke="#003959" stroke-miterlimit="10" stroke-width="25.23" d="M2413.42,1361.29a45.9,45.9,0,0,1-45.89-45.89h0A289.54,289.54,0,0,0,2140,1032.47h0a174.88,174.88,0,0,0-146.85,34.33l-29.92,24h-33.65a126.84,126.84,0,0,0-126.83,126.91l.14,242.42a58.09,58.09,0,0,1,64.52-55.27c28.61,3.22,50.45,22.32,50.21,63.93a21.71,21.71,0,0,0,18.65,21.37h0a94,94,0,0,0,77.74-24l151-140,96.68,80.1a58,58,0,0,1,18,63.16h0l.07,0a262.22,262.22,0,0,1-13.75,32.36l62.93-19.19a126.69,126.69,0,0,0,89.72-121.17Z"/><path fill="#edf2f0" stroke="#003959" stroke-miterlimit="10" stroke-width="25.23" d="M1578,1842.64h74.39a0,0,0,0,1,0,0v40.22a74.39,74.39,0,0,1-74.39,74.39h0a0,0,0,0,1,0,0V1842.64A0,0,0,0,1,1578,1842.64Z" transform="rotate(180 1615.165 1899.945)"/><line x1="1128.37" x2="1504.51" y1="1233.86" y2="1233.86" fill="none" stroke="#003959" stroke-miterlimit="10" stroke-width="25.23"/><line x1="2368.96" x2="2830.4" y1="679.3" y2="679.3" fill="none" stroke="#003959" stroke-miterlimit="10" stroke-width="25.23"/><line x1="2599.68" x2="2982.78" y1="765.48" y2="765.48" fill="none" stroke="#003959" stroke-miterlimit="10" stroke-width="25.23"/><line x1="2751.2" x2="1311.52" y1="1957.25" y2="1957.25" fill="none" stroke="#003959" stroke-miterlimit="10" stroke-width="25.23"/><line x1="2885.49" x2="2804.61" y1="1957.25" y2="1957.25" fill="none" stroke="#003959" stroke-miterlimit="10" stroke-width="25.23"/><line x1="1806.93" x2="1298.48" y1="2577.35" y2="2577.35" fill="none" stroke="#003959" stroke-miterlimit="10" stroke-width="25.23"/><path fill="#003959" d="M1678.14,1592.23a16.33,16.33,0,0,0,9.59-21l-5.36-14.4a23.5,23.5,0,0,0-44,16.42l5.37,14.39a16.33,16.33,0,0,0,21,9.6Z"/><path fill="#edf2f0" stroke="#003959" stroke-miterlimit="10" stroke-width="25.23" d="M2271.27,1493.28l60.8-104.4h0c36.73,0,59.68,39.76,41.32,71.56h0a65.65,65.65,0,0,0-4.75,55.49l28.44,77.26-119.16,106.12L2246.54,1541Z"/><line x1="1459.21" x2="1412.62" y1="2631.26" y2="2631.26" fill="none" stroke="#003959" stroke-miterlimit="10" stroke-width="25.23"/><line x1="1806.93" x2="1507.53" y1="2631.26" y2="2631.26" fill="none" stroke="#003959" stroke-miterlimit="10" stroke-width="25.23"/><line x1="2085.29" x2="1999.48" y1="2631.26" y2="2631.26" fill="none" stroke="#003959" stroke-miterlimit="10" stroke-width="25.23"/><ellipse cx="981.38" cy="760.87" fill="none" stroke="#003959" stroke-miterlimit="10" stroke-width="24.61" rx="204.12" ry="104.47" transform="rotate(-40.44 981.273 760.84)"/><ellipse cx="981.38" cy="760.87" fill="#003959" stroke="#003959" stroke-miterlimit="10" stroke-width="24.61" rx="115.09" ry="49.96" transform="rotate(-40.44 981.273 760.84)"/><path fill="none" stroke="#003959" stroke-miterlimit="10" stroke-width="24.61" d="M1136.75,628.48,1302.5,823c37.43,43.91-1.8,138.79-87.6,211.91s-185.7,96.79-223.13,52.88L826,893.27"/><polygon fill="none" stroke="#003959" stroke-miterlimit="10" stroke-width="25.23" points="2867.95 1531.51 3304.26 1257.35 3405.29 912.35 3361.01 847.25 2924.69 1121.41 2823.66 1466.41 2867.95 1531.51"/><polyline fill="none" stroke="#003959" stroke-miterlimit="10" stroke-width="25.23" points="3361.01 847.25 3259.98 1192.26 2823.66 1466.41"/><line x1="3259.98" x2="3304.26" y1="1192.26" y2="1257.35" fill="none" stroke="#003959" stroke-miterlimit="10" stroke-width="25.23"/><polygon fill="#003959" points="3259.98 1192.26 3304.26 1257.35 3405.29 912.35 3361.01 847.25 3259.98 1192.26"/><polygon fill="none" stroke="#003959" stroke-miterlimit="10" stroke-width="25.23" points="979.35 2763.72 660.58 2427.82 627.74 2279.14 1064.23 2261.9 1095.81 2409.39 979.49 2763.8 979.47 2763.85 979.35 2763.72"/><polygon fill="#003959" points="660.58 2427.82 979.52 2763.9 947.86 2616.46 627.74 2279.14 660.58 2427.82"/><line x1="947.86" x2="1064.23" y1="2616.46" y2="2261.9" fill="none" stroke="#003959" stroke-miterlimit="10" stroke-width="25.23"/><polyline fill="none" stroke="#003959" stroke-miterlimit="10" stroke-width="25.23" points="979.52 2763.9 947.86 2616.46 627.74 2279.14"/><polygon fill="none" stroke="#003959" stroke-miterlimit="10" stroke-width="25.23" points="2583.72 2865.38 2781.51 2986.39 2973.8 2950.02 3048.72 2697.95 2850.93 2576.95 2658.63 2613.31 2583.72 2865.38"/><polyline fill="none" stroke="#003959" stroke-miterlimit="10" stroke-width="25.23" points="3048.72 2697.95 2856.42 2734.32 2658.63 2613.31"/><line x1="2856.42" x2="2781.51" y1="2734.32" y2="2986.39" fill="none" stroke="#003959" stroke-miterlimit="10" stroke-width="25.23"/><polygon fill="#003959" points="2781.51 2986.39 2973.8 2950.02 3048.72 2697.95 2856.42 2734.32 2781.51 2986.39"/><path fill="#003959" stroke="#003959" stroke-miterlimit="10" stroke-width="25.23" d="M1927.36,2320.32h129.48l-31,257h-20.42l15.49-132.25a106.88,106.88,0,0,0-60.36-109Z"/><path fill="none" stroke="#003959" stroke-miterlimit="10" stroke-width="25.23" d="M993.87,1526.61a64.38,64.38,0,1,1,0-91"/><line x1="614.19" x2="504.18" y1="1446.71" y2="1446.71" fill="none" stroke="#003959" stroke-linecap="square" stroke-miterlimit="10" stroke-width="25.23"/><polyline fill="none" stroke="#003959" stroke-linecap="square" stroke-miterlimit="10" stroke-width="25.23" points="664.42 1545.47 563.95 1287.95 554.41 1287.95 453.94 1545.47"/><path fill="none" stroke="#003959" stroke-linecap="square" stroke-miterlimit="10" stroke-width="25.23" d="M724,1288v257.52h43.09a64.38,64.38,0,0,0,64.39-64.38h0a64.38,64.38,0,0,0-64.39-64.38H724"/><path fill="none" stroke="#003959" stroke-linecap="square" stroke-miterlimit="10" stroke-width="25.23" d="M2829.53,2288.93a75.58,75.58,0,0,1,75.58-75.58h0a75.58,75.58,0,0,1,75.58,75.58h0a66.61,66.61,0,0,1-42,61.89l-81.37,32.41a44.16,44.16,0,0,0-27.81,41h151.16"/><path fill="none" stroke="#003959" stroke-linecap="square" stroke-miterlimit="10" stroke-width="25.23" d="M3249.84,2288.93a75.58,75.58,0,0,1,75.58-75.58h0a75.58,75.58,0,0,1,75.58,75.58h0a66.61,66.61,0,0,1-42,61.89l-81.38,32.41a44.16,44.16,0,0,0-27.81,41H3401"/><line x1="3114.02" x2="3114.02" y1="2272.04" y2="2381.42" fill="none" stroke="#003959" stroke-linecap="square" stroke-miterlimit="10" stroke-width="25.23"/><line x1="3059.33" x2="3168.7" y1="2326.73" y2="2326.73" fill="none" stroke="#003959" stroke-linecap="square" stroke-miterlimit="10" stroke-width="25.23"/><line x1="1663.46" x2="1663.45" y1="854.9" y2="885.34" fill="none" stroke="#003959" stroke-miterlimit="10" stroke-width="25.23"/><path fill="none" stroke="#003959" stroke-miterlimit="10" stroke-width="25.23" d="M1548.56,587.65a119.82,119.82,0,0,1,119.82-119.82h0A119.82,119.82,0,0,1,1788.2,587.65h0a105.61,105.61,0,0,1-66.54,98.12h0a92.28,92.28,0,0,0-58.14,85.65l0,49"/><line x1="525" x2="765.73" y1="2834.72" y2="2834.72" fill="none" stroke="#003959" stroke-miterlimit="10" stroke-width="25.23"/><line x1="389.59" x2="481" y1="2834.72" y2="2834.72" fill="none" stroke="#003959" stroke-miterlimit="10" stroke-width="25.23"/></svg>